# xmcd CD database file
#
# Track frame offsets:
#	150
#	6266
#	17897
#	39577
#	58289
#	78041
#	97319
#	116029
#	133172
#	147462
#	168149
#
# Disc length: 2469 seconds
#
# Revision: 0
# Processed by: cddbd v1.5PL3 Copyright (c) Steve Scherf et al.
# Submitted via: CDex 1.51
#
DISCID=9909a30b
DTITLE=SNK - 幕末浪漫 月華の剣士 アレンジ・サウンドトラック
DYEAR=1998
DGENRE=Game
TTITLE0=四神の門〜戦雲の兆し
TTITLE1=月華の剣士〜夜明け前
TTITLE2=変転
TTITLE3=流転
TTITLE4=因縁
TTITLE5=剣聖
TTITLE6=朱雀
TTITLE7=邪神の門
TTITLE8=その後…
TTITLE9=流燈
TTITLE10=あかり唄(麻績村まゆ子)
EXTD=YEAR: 1998
EXTT0=
EXTT1=
EXTT2=
EXTT3=
EXTT4=
EXTT5=
EXTT6=
EXTT7=
EXTT8=
EXTT9=
EXTT10=
PLAYORDER=
